<svg width="22" height="22" viewBox="0 0 22 22" fill="none" xmlns="http://www.w3.org/2000/svg">
<path d="M1.83337 11.1869C1.83337 9.08919 1.83337 8.04034 2.30931 7.17084C2.78524 6.30135 3.65474 5.76171 5.39373 4.68245L7.22707 3.54463C9.06531 2.40376 9.98447 1.83333 11 1.83333C12.0156 1.83333 12.9348 2.40376 14.773 3.54463L16.6064 4.68244C18.3454 5.76171 19.2148 6.30135 19.6908 7.17084C20.1667 8.04034 20.1667 9.08919 20.1667 11.1869V12.5812C20.1667 16.157 20.1667 17.9449 19.0927 19.0558C18.0189 20.1667 16.2903 20.1667 12.8334 20.1667H9.16671C5.70974 20.1667 3.98126 20.1667 2.90731 19.0558C1.83337 17.9449 1.83337 16.157 1.83337 12.5812V11.1869Z" stroke="white" stroke-width="1.5"/>
<path d="M13.75 16.5H8.25" stroke="white" stroke-width="1.5" stroke-linecap="round"/>
</svg>
