<svg width="22" height="22" viewBox="0 0 22 22" fill="none" xmlns="http://www.w3.org/2000/svg">
<path d="M1.83337 11C1.83337 6.67878 1.83337 4.51818 3.1758 3.17576C4.51823 1.83333 6.67883 1.83333 11 1.83333C15.3212 1.83333 17.4819 1.83333 18.8242 3.17576C20.1667 4.51818 20.1667 6.67878 20.1667 11C20.1667 15.3212 20.1667 17.4818 18.8242 18.8242C17.4819 20.1667 15.3212 20.1667 11 20.1667C6.67883 20.1667 4.51823 20.1667 3.1758 18.8242C1.83337 17.4818 1.83337 15.3212 1.83337 11Z" stroke="white" stroke-width="1.5"/>
<path d="M14.6667 8.70834H7.33337M7.33337 8.70834L9.85421 6.41667M7.33337 8.70834L9.85421 11" stroke="white" stroke-width="1.5" stroke-linecap="round" stroke-linejoin="round"/>
<path d="M7.33337 13.2917H14.6667M14.6667 13.2917L12.1459 11M14.6667 13.2917L12.1459 15.5833" stroke="white" stroke-width="1.5" stroke-linecap="round" stroke-linejoin="round"/>
</svg>
